# xmcd CD database file generated by OrangeCD 6.4
#
# Track frame offsets:
#	150
#	37409
#	153601
#	160353
#	243997
#	274764
#	317805
#
# Disc length: 4649 seconds
#
# Revision: 0
# Processed by: cddbd v1.5.2PL0 Copyright (c) Steve Scherf et al.
# Submitted via: OrangeCD 6.4
#
DISCID=62122707
DTITLE=Jimi Hendrix and Friends - Jammin' With Jimi
DYEAR=2008
DGENRE=Blues Rock
TTITLE0=Like A Rolling Stone
TTITLE1=Jam San-Ho-Zay
TTITLE2=Intro Jam By BB King
TTITLE3=Slow Blues
TTITLE4=Fast Blues
TTITLE5=It's My Own Fault
TTITLE6=Intro By BB King
EXTD=
EXTT0=
EXTT1=
EXTT2=
EXTT3=
EXTT4=
EXTT5=
EXTT6=
PLAYORDER=
